<?xml version="1.0" encoding="UTF-8" standalone="no"?>
<svg width="303px" height="110px" viewBox="0 0 303 110" version="1.1" xmlns="http://www.w3.org/2000/svg" xmlns:xlink="http://www.w3.org/1999/xlink" xmlns:sketch="http://www.bohemiancoding.com/sketch/ns">
    <!-- Generator: Sketch 3.4.4 (17249) - http://www.bohemiancoding.com/sketch -->
    <title>Rectangle 1 + CSSOR</title>
    <desc>Created with Sketch.</desc>
    <defs></defs>
    <g id="Page-1" stroke="none" stroke-width="1" fill="none" fill-rule="evenodd" sketch:type="MSPage">
        <g id="Rectangle-1-+-CSSOR" sketch:type="MSLayerGroup">
            <rect id="Rectangle-1" fill="#F4FA9C" sketch:type="MSShapeGroup" x="0" y="0" width="303" height="110"></rect>
            <g id="OR-+-CSS" transform="translate(30.000000, 27.000000)" sketch:type="MSShapeGroup">
                <path d="M165.089844,56.0546875 C161.410138,56.0546875 158.04689,55.3691475 155,53.9980469 C151.95311,52.6269463 149.234387,50.6757939 146.84375,48.1445312 C144.453113,45.6132686 142.636725,42.6132986 141.394531,39.1445312 C140.152338,35.6757639 139.53125,32.0781436 139.53125,28.3515625 C139.53125,24.5077933 140.158197,20.8984544 141.412109,17.5234375 C142.666022,14.1484206 144.423817,11.2129031 146.685547,8.71679688 C148.947277,6.22069064 151.642562,4.25196033 154.771484,2.81054688 C157.900406,1.36913342 161.339825,0.6484375 165.089844,0.6484375 C168.8633,0.6484375 172.320297,1.36913342 175.460938,2.81054688 C178.601578,4.25196033 181.296864,6.22069064 183.546875,8.71679688 C185.796886,11.2129031 187.542963,14.1484206 188.785156,17.5234375 C190.02735,20.8984544 190.648438,24.5077933 190.648438,28.3515625 C190.648438,32.1953317 190.021491,35.7988113 188.767578,39.1621094 C187.513666,42.5254074 185.755871,45.460925 183.494141,47.96875 C181.232411,50.476575 178.537125,52.4511647 175.408203,53.8925781 C172.279281,55.3339916 168.839863,56.0546875 165.089844,56.0546875 L165.089844,56.0546875 Z M165.089844,49.515625 C167.87892,49.515625 170.404286,48.941412 172.666016,47.7929688 C174.927746,46.6445255 176.855461,45.1035253 178.449219,43.1699219 C180.042977,41.2363185 181.273433,38.9922003 182.140625,36.4375 C183.007817,33.8827997 183.441406,31.1875142 183.441406,28.3515625 C183.441406,25.445298 182.966802,22.6386854 182.017578,19.9316406 C181.068355,17.2245958 179.744149,14.9336031 178.044922,13.0585938 C176.345695,11.1835844 174.371105,9.73633322 172.121094,8.71679688 C169.871082,7.69726053 167.527356,7.1875 165.089844,7.1875 C162.300767,7.1875 159.769543,7.76171301 157.496094,8.91015625 C155.222645,10.0585995 153.28907,11.5995997 151.695312,13.5332031 C150.101555,15.4668065 148.871098,17.716784 148.003906,20.2832031 C147.136714,22.8496222 146.703125,25.5390484 146.703125,28.3515625 C146.703125,31.6328289 147.183589,34.5566278 148.144531,37.1230469 C149.105474,39.689466 150.376945,41.8222571 151.958984,43.5214844 C153.541024,45.2207116 155.427723,46.6445255 157.619141,47.7929688 C159.810558,48.941412 162.300767,49.515625 165.089844,49.515625 L165.089844,49.515625 Z M198.171875,1.703125 L220.355469,1.703125 C222.722668,1.703125 224.908193,2.01366877 226.912109,2.63476562 C228.916026,3.25586248 230.650383,4.16991584 232.115234,5.37695312 C233.580085,6.58399041 234.722652,8.08983473 235.542969,9.89453125 C236.363285,11.6992278 236.773438,13.7734258 236.773438,16.1171875 C236.773438,17.4531317 236.533206,18.7714779 236.052734,20.0722656 C235.572263,21.3730534 234.904301,22.5800726 234.048828,23.6933594 C233.193355,24.8066462 232.179693,25.7968707 231.007812,26.6640625 C229.835932,27.5312543 228.558601,28.1992164 227.175781,28.6679687 C227.761722,28.9257825 228.353513,29.2949195 228.951172,29.7753906 C229.548831,30.2558618 230.111325,30.8417934 230.638672,31.5332031 C231.166018,32.2246128 231.646482,33.0097612 232.080078,33.8886719 C232.513674,34.7675825 232.859374,35.7109325 233.117188,36.71875 L236.070312,48.3203125 L240.675781,48.3203125 L240.746094,55 L230.375,55 L226.402344,38.7929688 C225.675778,35.8867042 224.568367,33.7480537 223.080078,32.3769531 C221.591789,31.0058525 219.558607,30.3203125 216.980469,30.3203125 L210.125,30.3203125 L210.125,48.953125 L215.46875,48.953125 L215.46875,55 L198.171875,55 L198.171875,48.953125 L203.234375,48.953125 L203.234375,7.78515625 L198.171875,7.78515625 L198.171875,1.703125 Z M210.125,7.78515625 L210.125,24.5546875 L220.355469,24.5546875 C221.691413,24.5546875 222.91601,24.378908 224.029297,24.0273438 C225.142584,23.6757795 226.103512,23.148441 226.912109,22.4453125 C227.720707,21.742184 228.353513,20.8691458 228.810547,19.8261719 C229.26758,18.7831979 229.496094,17.5703194 229.496094,16.1875 C229.496094,13.5390493 228.699227,11.4765699 227.105469,10 C225.511711,8.52343012 222.980486,7.78515625 219.511719,7.78515625 L210.125,7.78515625 Z" id="OR" fill="#F469A9"></path>
                <path d="M40.8554688,15.765625 C39.2851484,13.0937366 37.2050911,10.9961014 34.6152344,9.47265625 C32.0253777,7.94921113 29.1367347,7.1875 25.9492187,7.1875 C23.2304552,7.1875 20.746105,7.76171301 18.4960938,8.91015625 C16.2460825,10.0585995 14.3183674,11.5995997 12.7128906,13.5332031 C11.1074138,15.4668065 9.85937945,17.7050654 8.96875,20.2480469 C8.07812055,22.7910283 7.6328125,25.4687359 7.6328125,28.28125 C7.6328125,31.6093916 8.12499508,34.5566278 9.109375,37.1230469 C10.0937549,39.689466 11.3769452,41.8222571 12.9589844,43.5214844 C14.5410235,45.2207116 16.4218641,46.6386662 18.6015625,47.7753906 C20.7812609,48.9121151 23.2304552,49.4804688 25.9492187,49.4804688 C29.6523623,49.4804688 32.8749863,48.5839933 35.6171875,46.7910156 C38.3593887,44.9980379 40.7031153,42.0508018 42.6484375,37.9492188 L48.8359375,40.8671875 C47.945308,43.3984502 46.4336044,45.8417851 44.3007812,48.1972656 C42.1679581,50.5527462 39.537125,52.4511647 36.4082031,53.8925781 C33.2792812,55.3339916 29.8164252,56.0546875 26.0195312,56.0546875 C22.3867006,56.0546875 19.0468902,55.3691475 16,53.9980469 C12.9531098,52.6269463 10.2402463,50.6757939 7.86132812,48.1445312 C5.48240998,45.6132686 3.66602189,42.6132986 2.41210938,39.1445312 C1.15819686,35.6757639 0.53125,32.0547064 0.53125,28.28125 C0.53125,24.484356 1.15819686,20.8984544 2.41210938,17.5234375 C3.66602189,14.1484206 5.42381682,11.2129031 7.68554688,8.71679688 C9.94727693,6.22069064 12.6425625,4.25196033 15.7714844,2.81054688 C18.9004063,1.36913342 22.2929505,0.6484375 25.9492187,0.6484375 C29.2070475,0.6484375 32.0195194,1.1113235 34.3867188,2.03710938 C36.7539181,2.96289525 38.7636636,4.06444674 40.4160156,5.34179688 C42.0683676,6.61914701 43.4921815,8.007805 44.6875,9.5078125 L48.4140625,9.5078125 L48.4140625,15.765625 L40.8554688,15.765625 Z M82.2695312,11.546875 C81.5195275,10.5156198 80.6933639,9.72461213 79.7910156,9.17382812 C78.8886674,8.62304412 77.8984429,8.20117334 76.8203125,7.90820312 C75.7421821,7.61523291 74.6640679,7.46875 73.5859375,7.46875 C71.8046786,7.46875 70.2461004,7.67382607 68.9101562,8.08398438 C67.5742121,8.49414268 66.4668013,9.05077773 65.5878906,9.75390625 C64.70898,10.4570348 64.0468772,11.2773391 63.6015625,12.2148438 C63.1562478,13.1523484 62.9335938,14.1367136 62.9335938,15.1679688 C62.9335938,16.7148515 63.2089816,17.9628859 63.7597656,18.9121094 C64.3105496,19.8613329 65.0078083,20.623044 65.8515625,21.1972656 C66.6953167,21.7714872 67.626948,22.2226546 68.6464844,22.5507812 C69.6660207,22.8789079 70.6445266,23.2070296 71.5820312,23.5351562 L78.6835938,25.8554688 C80.8164169,26.5351596 82.6972575,27.3085894 84.3261719,28.1757812 C85.9550863,29.0429731 87.320307,30.0683535 88.421875,31.2519531 C89.523443,32.4355528 90.3613253,33.8007735 90.9355469,35.3476562 C91.5097685,36.894539 91.796875,38.6874898 91.796875,40.7265625 C91.796875,42.9296985 91.3457076,44.9687406 90.4433594,46.84375 C89.5410111,48.7187594 88.2812581,50.3476493 86.6640625,51.7304688 C85.0468669,53.1132882 83.1191518,54.1972617 80.8808594,54.9824219 C78.6425669,55.7675821 76.1875134,56.1601562 73.515625,56.1601562 C70.7734238,56.1601562 68.4296972,55.8496125 66.484375,55.2285156 C64.5390528,54.6074188 62.9043035,53.7753958 61.5800781,52.7324219 C60.2558528,51.6894479 59.1953165,50.5000067 58.3984375,49.1640625 C57.6015585,47.8281183 56.980471,46.4570383 56.5351562,45.0507812 L53.8632812,45.0507812 L53.8632812,39.0039062 L62.7226562,39.0039062 C62.7226562,41.6054818 62.9980441,43.4453071 63.5488281,44.5234375 C64.0996121,45.6015679 64.8671826,46.4980433 65.8515625,47.2128906 C66.8359424,47.9277379 68.0078057,48.4667951 69.3671875,48.8300781 C70.7265693,49.1933612 72.2265543,49.375 73.8671875,49.375 C75.4609455,49.375 76.896478,49.1875019 78.1738281,48.8125 C79.4511783,48.4374981 80.5410111,47.8925817 81.4433594,47.1777344 C82.3457076,46.4628871 83.037107,45.5957082 83.5175781,44.5761719 C83.9980493,43.5566355 84.2382812,42.4023502 84.2382812,41.1132812 C84.2382812,39.6835866 83.9394561,38.4707081 83.3417969,37.4746094 C82.7441376,36.4785106 81.9765672,35.6289098 81.0390625,34.9257812 C80.1015578,34.2226527 79.0761774,33.6484397 77.9628906,33.203125 C76.8496038,32.7578103 75.7773489,32.3710954 74.7460938,32.0429688 L67.046875,29.8632813 C65.3593666,29.3476537 63.8183663,28.6914102 62.4238281,27.8945312 C61.0292899,27.0976523 59.8339894,26.1250057 58.8378906,24.9765625 C57.8417919,23.8281193 57.0742214,22.4863358 56.5351562,20.9511719 C55.9960911,19.4160079 55.7265625,17.6406351 55.7265625,15.625 C55.7265625,13.5859273 56.124996,11.6757902 56.921875,9.89453125 C57.718754,8.11327234 58.8906173,6.55469418 60.4375,5.21875 C61.9843827,3.88280582 63.8769419,2.83398818 66.1152344,2.07226562 C68.3535268,1.31054307 70.9140481,0.9296875 73.796875,0.9296875 C75.695322,0.9296875 77.4472576,1.15234152 79.0527344,1.59765625 C80.6582112,2.04297098 82.1113216,2.66991783 83.4121094,3.47851562 C84.7128971,4.28711342 85.8613231,5.25975994 86.8574219,6.39648438 C87.8535206,7.53320881 88.6914029,8.7812432 89.3710938,10.140625 L92.0078125,10.140625 L92.0078125,16.1875 L83.3945312,16.1875 C83.3945312,14.1249897 83.019535,12.5781302 82.2695312,11.546875 L82.2695312,11.546875 Z M124.808594,11.546875 C124.05859,10.5156198 123.232426,9.72461213 122.330078,9.17382812 C121.42773,8.62304412 120.437505,8.20117334 119.359375,7.90820312 C118.281245,7.61523291 117.20313,7.46875 116.125,7.46875 C114.343741,7.46875 112.785163,7.67382607 111.449219,8.08398438 C110.113275,8.49414268 109.005864,9.05077773 108.126953,9.75390625 C107.248042,10.4570348 106.58594,11.2773391 106.140625,12.2148438 C105.69531,13.1523484 105.472656,14.1367136 105.472656,15.1679688 C105.472656,16.7148515 105.748044,17.9628859 106.298828,18.9121094 C106.849612,19.8613329 107.546871,20.623044 108.390625,21.1972656 C109.234379,21.7714872 110.166011,22.2226546 111.185547,22.5507812 C112.205083,22.8789079 113.183589,23.2070296 114.121094,23.5351562 L121.222656,25.8554688 C123.355479,26.5351596 125.23632,27.3085894 126.865234,28.1757812 C128.494149,29.0429731 129.859369,30.0683535 130.960938,31.2519531 C132.062506,32.4355528 132.900388,33.8007735 133.474609,35.3476562 C134.048831,36.894539 134.335938,38.6874898 134.335938,40.7265625 C134.335938,42.9296985 133.88477,44.9687406 132.982422,46.84375 C132.080074,48.7187594 130.820321,50.3476493 129.203125,51.7304688 C127.585929,53.1132882 125.658214,54.1972617 123.419922,54.9824219 C121.181629,55.7675821 118.726576,56.1601562 116.054688,56.1601562 C113.312486,56.1601562 110.96876,55.8496125 109.023438,55.2285156 C107.078115,54.6074188 105.443366,53.7753958 104.119141,52.7324219 C102.794915,51.6894479 101.734379,50.5000067 100.9375,49.1640625 C100.140621,47.8281183 99.5195335,46.4570383 99.0742188,45.0507812 L96.4023438,45.0507812 L96.4023438,39.0039062 L105.261719,39.0039062 C105.261719,41.6054818 105.537107,43.4453071 106.087891,44.5234375 C106.638675,45.6015679 107.406245,46.4980433 108.390625,47.2128906 C109.375005,47.9277379 110.546868,48.4667951 111.90625,48.8300781 C113.265632,49.1933612 114.765617,49.375 116.40625,49.375 C118.000008,49.375 119.43554,49.1875019 120.712891,48.8125 C121.990241,48.4374981 123.080074,47.8925817 123.982422,47.1777344 C124.88477,46.4628871 125.576169,45.5957082 126.056641,44.5761719 C126.537112,43.5566355 126.777344,42.4023502 126.777344,41.1132812 C126.777344,39.6835866 126.478519,38.4707081 125.880859,37.4746094 C125.2832,36.4785106 124.51563,35.6289098 123.578125,34.9257812 C122.64062,34.2226527 121.61524,33.6484397 120.501953,33.203125 C119.388666,32.7578103 118.316411,32.3710954 117.285156,32.0429688 L109.585938,29.8632813 C107.898429,29.3476537 106.357429,28.6914102 104.962891,27.8945312 C103.568352,27.0976523 102.373052,26.1250057 101.376953,24.9765625 C100.380854,23.8281193 99.6132839,22.4863358 99.0742188,20.9511719 C98.5351536,19.4160079 98.265625,17.6406351 98.265625,15.625 C98.265625,13.5859273 98.6640585,11.6757902 99.4609375,9.89453125 C100.257816,8.11327234 101.42968,6.55469418 102.976562,5.21875 C104.523445,3.88280582 106.416004,2.83398818 108.654297,2.07226562 C110.892589,1.31054307 113.453111,0.9296875 116.335938,0.9296875 C118.234384,0.9296875 119.98632,1.15234152 121.591797,1.59765625 C123.197274,2.04297098 124.650384,2.66991783 125.951172,3.47851562 C127.25196,4.28711342 128.400386,5.25975994 129.396484,6.39648438 C130.392583,7.53320881 131.230465,8.7812432 131.910156,10.140625 L134.546875,10.140625 L134.546875,16.1875 L125.933594,16.1875 C125.933594,14.1249897 125.558597,12.5781302 124.808594,11.546875 L124.808594,11.546875 Z" id="CSS" fill="#BA53DE"></path>
            </g>
        </g>
    </g>
</svg>